<svg version="1.2" xmlns="http://www.w3.org/2000/svg" viewBox="0 0 543 543" width="500" height="500">
	<title>27f3586c-70dd-4977-83d7-4552443c9d1b-ai</title>
	<style>
		.s0 { fill: #4267b3 } 
		.s1 { fill: #4babf9 } 
		.s2 { fill: #e7e7e7 } 
	</style>
	<g id="Objects">
		<g id="&lt;Group&gt;">
			<path id="&lt;Path&gt;" class="s0" d="m532.1 272.4c0 69.4-27.3 132.4-71.8 178.9q-0.4 0.4-0.8 0.8c-47 48.6-112.9 78.9-185.9 78.9-73 0-138.9-30.3-185.9-78.9q-0.4-0.4-0.8-0.8c-44.5-46.5-71.8-109.5-71.8-178.9 0-142.7 115.7-258.5 258.5-258.5 142.8 0 258.5 115.8 258.5 258.5z"/>
			<path id="&lt;Path&gt;" class="s1" d="m373 187.5c0 54.9-44.5 99.4-99.4 99.4-54.9 0-99.4-44.5-99.4-99.4 0-54.9 44.5-99.4 99.4-99.4 54.9 0 99.4 44.5 99.4 99.4z"/>
			<path id="&lt;Path&gt;" class="s2" d="m387.8 594.5c0 8.5-51.1 15.5-114.2 15.5-63.1 0-114.3-7-114.3-15.5 0-8.6 51.2-15.6 114.3-15.6 63.1 0 114.2 7 114.2 15.6z"/>
			<path id="&lt;Path&gt;" class="s1" d="m459.5 436.9v15.2c-47 48.6-112.9 78.9-185.9 78.9-73 0-138.9-30.3-185.9-78.9v-15.2c0-76.4 44.3-116.9 185.9-116.9 146.8 0 185.9 47.3 185.9 116.9z"/>
		</g>
	</g>
</svg>