<svg version="1.2" xmlns="http://www.w3.org/2000/svg" viewBox="0 0 386 386" width="800" height="800">
	<title>mix ideas 6-ai</title>
	<style>
		tspan { white-space:pre } 
		.s0 { fill: #ffffff } 
		.s1 { fill: #339e35 } 
	</style>
	<g id="Capa 1">
		<g id="&lt;Group&gt;">
			<g id="&lt;Group&gt;">
				<path id="&lt;Path&gt;" class="s0" d="m295.9 189.8c-8.9-16.7-29.7-23-46.4-14.1-10.5 5.6-16.9 15.9-18 26.9-2.8 22.7-16.2 43.8-37.9 55.4-35.4 18.9-79.5 5.5-98.4-29.9-18.9-35.5-5.5-79.5 29.9-98.4 21.7-11.6 46.7-11 67.1-0.7 0.3 0.2 0.7 0.3 1.1 0.5q0.2 0.1 0.4 0.2c9.5 4.6 20.9 4.7 30.9-0.6 16.6-8.9 22.9-29.6 14-46.3-3.5-6.5-8.8-11.5-14.9-14.5v-0.1c-39.8-20.3-88.4-21.5-130.8 1.1-68.7 36.7-94.7 122.2-58 191 36.7 68.7 122.2 94.7 190.9 58 41.4-22 67.2-61.8 73.3-104.9 1.7-7.8 0.8-16.1-3.2-23.6z"/>
				<path id="&lt;Path&gt;" class="s1" d="m291.7 64.6c-16.1 8.6-25.7 24.5-27.2 41.4-1.8 17.5-12 33.7-28.6 42.6-15.4 8.2-32.9 8.3-47.7 1.9-15.3-10.1-35.5-11.7-52.8-2.5-25.2 13.5-34.8 44.8-21.3 70 13.4 25.2 44.8 34.7 70 21.3 16.2-8.7 25.9-24.8 27.1-41.9 2.2-17 12.3-32.8 28.6-41.5 16.6-8.9 35.8-8.3 51.4-0.1l0.2-0.2c14.7 8 33.1 8.7 49 0.2 25.2-13.4 34.7-44.7 21.3-69.9-13.5-25.2-44.8-34.8-70-21.3z"/>
			</g>
		</g>
	</g>
</svg>